# xmcd
#
# Track frame offsets: 
#        150
#        6674
#        46340
#        70909
#        100339
#        105877
#        144577
#        171111
#        191306
#        210958
#        217830
#        260771
#        278233
#        299467
#        322424
#        347821
#
# Disc length: 4733 seconds
#
# Revision: 3
# Processed by: cddbd v1.5.2PL0 Copyright (c) Steve Scherf et al.
# Submitted via: ExactAudioCopyFreeDBPlugin 1.0
#
DISCID=f8127b10
DTITLE=Lupe Fiasco - Tetsuo and Youth
DYEAR=2015
DGENRE=Rap
TTITLE0=Summer
TTITLE1=Mural
TTITLE2=Blur My Hands Feat. Guy Sebastian
TTITLE3=Dots and Lines
TTITLE4=Fall
TTITLE5=Prisoner 1 and 2 Feat. Ayesha Jaco
TTITLE6=Body Of Work Feat. Troi and Terrace Martin
TTITLE7=Little Death Feat. Nikki Jean
TTITLE8=No Scratches Feat. Nikki Jean
TTITLE9=Winter
TTITLE10=Chopper Feat. Billy Blue, Buk Of Psychodrama, Trouble, Trae T
TTITLE10=ha Truth, Fam-Lay and Glasses Malone
TTITLE11=Deliver
TTITLE12=Madonna (And Other Mothers In The Hood) Feat. Nikki Jean
TTITLE13=Adoration Of The Magi Feat. Crystal Torres
TTITLE14=They.Resurrect.Over.New. Feat. Ab-Soul and Troi
TTITLE15=Spring
EXTD=
EXTT0=
EXTT1=
EXTT2=
EXTT3=
EXTT4=
EXTT5=
EXTT6=
EXTT7=
EXTT8=
EXTT9=
EXTT10=
EXTT11=
EXTT12=
EXTT13=
EXTT14=
EXTT15=
PLAYORDER=
